<svg width="243" height="50" viewBox="0 0 243 50" fill="none" xmlns="http://www.w3.org/2000/svg">
<path d="M0 5C0 2.23858 2.23858 0 5 0H45C47.7614 0 50 2.23858 50 5V45C50 47.7614 47.7614 50 45 50H5C2.23858 50 0 47.7614 0 45V5Z" fill="#3178C6"/>
<path d="M5.48 22.112L15.464 11.936C15.72 11.68 15.72 11.296 15.464 11.104C15.208 10.848 14.824 10.848 14.568 11.104L4.328 21.536C4.2 21.664 4.136 21.792 4.2 21.984V22.304C4.2 22.496 4.264 22.624 4.328 22.752L14.76 33.12C14.888 33.312 15.144 33.376 15.336 33.312C15.528 33.248 15.72 33.056 15.784 32.864C15.848 32.672 15.784 32.416 15.592 32.288L5.48 22.112Z" fill="white"/>
<path d="M44.784 27.664L34.224 17.104C33.968 16.848 33.584 16.848 33.328 17.104C33.136 17.36 33.136 17.68 33.328 17.936L43.504 28.112L33.52 38.288C33.264 38.544 33.264 38.928 33.52 39.12C33.712 39.376 34.096 39.376 34.352 39.12L44.784 28.496V27.664Z" fill="white"/>
<path d="M30.504 5.64C30.28 5.64 30.056 5.808 30 6.032L18.8 43.328C18.744 43.496 18.8 43.664 18.856 43.832C18.968 43.944 19.136 44.056 19.304 44.056C19.528 44.056 19.752 43.888 19.808 43.664L31.064 6.312C31.064 6.2 31.064 5.976 30.952 5.864C30.84 5.752 30.672 5.64 30.504 5.64Z" fill="white"/>
<path d="M71.7929 25.31L63.9921 23.1399C60.9004 22.2541 58.8075 20.0396 58.8075 17.5594C58.8075 14.2378 62.3749 11.5804 66.7985 11.5804H68.4633C72.5539 11.5804 75.9786 13.8834 76.4543 16.8508C76.5018 17.2494 76.8824 17.5594 77.3105 17.5594C77.5959 17.5594 77.8337 17.4266 78.0239 17.2494C78.1666 17.0723 78.2618 16.8065 78.2142 16.5851C77.5959 12.8205 73.4577 9.89744 68.4633 9.89744H66.7985C61.376 9.89744 57 13.3077 57 17.5594C57 20.7925 59.6161 23.6713 63.4689 24.7343L71.2696 26.9044C74.3614 27.7902 76.5019 30.0047 76.5019 32.4848V32.5734C76.4543 33.9907 75.8359 35.3193 74.7419 36.2937C73.0296 37.7552 70.794 38.5524 68.4633 38.5082H66.7509C62.6603 38.5082 59.2831 36.2051 58.8551 33.2378C58.7599 32.8392 58.3794 32.5291 57.9513 32.5734C57.6659 32.5734 57.4281 32.662 57.2378 32.8392C57.0951 33.0606 57 33.2821 57.0476 33.5478C57.6659 37.2681 61.8041 40.1911 66.7509 40.1911H68.4633C71.2696 40.2354 73.9809 39.2611 75.9786 37.4895C77.4532 36.2051 78.2618 34.4336 78.3093 32.5734V32.4848C78.3093 29.296 75.6932 26.373 71.7929 25.31Z" fill="white"/>
<path d="M99.2787 9.89744C90.3363 9.89744 83.0588 16.6737 83.0588 25.0443C83.0588 33.4149 90.3363 40.1911 99.2787 40.1911C108.269 40.1911 115.546 33.4149 115.546 25.0443C115.546 16.6737 108.269 9.89744 99.2787 9.89744ZM99.2787 38.5082C91.3352 38.5082 84.8663 32.4848 84.8663 25.0443C84.8663 17.6037 91.3352 11.5804 99.2787 11.5804C107.27 11.5804 113.739 17.6037 113.739 25.0443C113.739 32.4848 107.27 38.5082 99.2787 38.5082Z" fill="white"/>
<path d="M139.813 9.89744H121.215C120.739 9.89744 120.359 10.2517 120.359 10.7389V43.1585C120.359 43.6457 120.739 44 121.215 44H121.262C121.738 44 122.166 43.6457 122.166 43.1585V25.8858H135.722C136.198 25.8858 136.626 25.5315 136.626 25.0443C136.626 24.6014 136.198 24.2028 135.722 24.2028H122.166V11.5804H139.813C140.289 11.5804 140.669 11.2261 140.669 10.7389C140.669 10.5175 140.574 10.296 140.431 10.1632C140.241 9.98601 140.051 9.89744 139.813 9.89744Z" fill="white"/>
<path d="M168.986 9.89744H146.345C145.869 9.89744 145.489 10.2517 145.489 10.7389C145.489 11.2261 145.869 11.5804 146.345 11.5804H156.762V43.1585C156.762 43.6457 157.19 44 157.665 44C158.189 44 158.569 43.6457 158.569 43.1585V11.5804H168.986C169.509 11.5804 169.89 11.2261 169.89 10.7389C169.89 10.2517 169.509 9.89744 168.986 9.89744Z" fill="white"/>
<path d="M196.586 6C196.253 6 195.968 6.13287 195.825 6.3986L184.837 23.4056L176.371 10.2517C176.181 10.0303 175.895 9.85314 175.61 9.85314H175.562C175.277 9.85314 174.944 10.0303 174.801 10.296C174.658 10.5618 174.658 10.8718 174.801 11.1375L183.934 25.2657V39.3939C183.934 39.8368 184.362 40.2354 184.837 40.2354C185.361 40.2354 185.741 39.8368 185.741 39.3939V25.31L197.347 7.28438C197.537 7.01865 197.537 6.66434 197.395 6.44289C197.204 6.17716 196.919 6 196.586 6Z" fill="white"/>
<path d="M220.239 18.8438C220.049 13.7949 215.435 9.89744 210.013 9.89744H200.785C200.309 9.89744 199.929 10.2517 199.929 10.7389V43.1585C199.929 43.6457 200.309 44 200.785 44H200.832C201.308 44 201.736 43.6457 201.736 43.1585V28.5431H210.25C212.962 28.5431 215.578 27.5245 217.48 25.7086C219.335 23.8485 220.382 21.4126 220.239 18.8438ZM210.25 26.8601H201.736V11.5804H210.25C214.769 11.5804 218.479 14.9907 218.479 19.2424C218.479 23.4499 214.769 26.8601 210.25 26.8601Z" fill="white"/>
<path d="M242.144 9.89744H223.546C223.07 9.89744 222.69 10.2517 222.69 10.7389C222.69 11.2261 223.07 11.5804 223.546 11.5804H241.193V24.2028H227.636C227.161 24.2028 226.733 24.6014 226.733 25.0443C226.733 25.5315 227.161 25.8858 227.636 25.8858H241.193V38.5082H223.546C223.07 38.5082 222.69 38.9068 222.69 39.3497V39.3939C222.69 39.8368 223.07 40.1911 223.546 40.1911H242.144C242.619 40.1911 243 39.8368 243 39.3939V10.7389C243 10.5175 242.905 10.296 242.762 10.1632C242.572 9.98601 242.382 9.89744 242.144 9.89744Z" fill="white"/>
</svg>
