<svg width="50" height="50" viewBox="0 0 50 50" fill="none" xmlns="http://www.w3.org/2000/svg">
<path d="M0 5C0 2.23858 2.23858 0 5 0H45C47.7614 0 50 2.23858 50 5V45C50 47.7614 47.7614 50 45 50H5C2.23858 50 0 47.7614 0 45V5Z" fill="#3178C6"/>
<path d="M19.936 26.728L12.32 19.112L19.808 11.496C20.704 10.536 20.704 9 19.744 8.104V8.04C18.784 7.144 17.248 7.144 16.352 8.104L7.84 16.744C7.392 17.192 7.136 17.768 7.2 18.408V19.88C7.2 20.52 7.456 21.096 7.904 21.544L16.48 30.12C16.928 30.632 17.568 30.888 18.208 30.888C18.848 30.888 19.424 30.632 19.872 30.12H19.936C20.832 29.16 20.832 27.624 19.936 26.728Z" fill="white"/>
<path d="M43.64 31.344C43.64 30.704 43.384 30.128 42.936 29.68L34.296 21.04C33.848 20.592 33.272 20.336 32.632 20.336C31.992 20.336 31.352 20.592 30.904 21.04V21.104C29.944 22.064 29.944 23.536 30.904 24.496L38.456 32.112L30.968 39.728C30.072 40.688 30.072 42.224 31.032 43.12V43.184C31.544 43.632 32.12 43.824 32.76 43.824C33.4 43.824 34.04 43.568 34.488 43.12L42.936 34.48C43.384 34.032 43.64 33.456 43.64 32.816V31.344Z" fill="white"/>
</svg>
