<svg width="1000" height="1000" viewBox="0 0 1000 1000" fill="none" xmlns="http://www.w3.org/2000/svg">
<path d="M500 1000C776.142 1000 1000 776.142 1000 500C1000 223.858 776.142 4.57764e-05 500 4.57764e-05C223.858 4.57764e-05 0 223.858 0 500C0 776.142 223.858 1000 500 1000Z" fill="#3C5A9A"/>
<path d="M662.579 153.474H551.817C486.087 153.474 412.976 181.119 412.976 276.397C413.297 309.596 412.976 341.39 412.976 377.173H336.936V498.177H415.329V846.525H559.382V495.878H654.462L663.065 376.834H556.9C556.9 376.834 557.138 323.878 556.9 308.499C556.9 270.847 596.078 273.003 598.435 273.003C617.078 273.003 653.328 273.058 662.633 273.003V153.474H662.579Z" fill="white"/>
</svg>
