<svg width="1000" height="999" viewBox="0 0 1000 999" fill="none" xmlns="http://www.w3.org/2000/svg">
<ellipse cx="500.5" cy="517.5" rx="493.5" ry="481.5" fill="white"/>
<path d="M500.002 0C223.894 0 0 223.855 0 500.002C0 720.92 143.266 908.34 341.933 974.456C366.92 979.083 376.097 963.609 376.097 950.402C376.097 938.481 375.63 899.09 375.418 857.311C236.313 887.557 206.961 798.317 206.961 798.317C184.217 740.523 151.446 725.159 151.446 725.159C106.083 694.124 154.865 694.76 154.865 694.76C205.075 698.289 231.513 746.287 231.513 746.287C276.108 822.728 348.482 800.627 377.014 787.855C381.5 755.534 394.461 733.48 408.758 720.994C297.703 708.348 180.954 665.475 180.954 473.889C180.954 419.303 200.487 374.697 232.474 339.682C227.282 327.086 210.169 276.233 237.317 207.361C237.317 207.361 279.304 193.923 374.853 258.614C414.734 247.532 457.509 241.98 500.002 241.791C542.495 241.98 585.301 247.532 625.26 258.614C720.696 193.923 762.624 207.361 762.624 207.361C789.839 276.233 772.718 327.086 767.526 339.682C799.584 374.697 818.983 419.299 818.983 473.889C818.983 665.929 702.014 708.218 590.677 720.594C608.61 736.111 624.59 766.542 624.59 813.187C624.59 880.087 624.009 933.932 624.009 950.402C624.009 963.707 633.009 979.299 658.357 974.389C856.915 908.199 1000 720.845 1000 500.002C1000 223.855 776.137 0 500.002 0Z" fill="#161614"/>
<path d="M187.268 712.265C186.17 714.747 182.256 715.492 178.7 713.79C175.072 712.159 173.033 708.771 174.21 706.277C175.288 703.72 179.201 703.007 182.821 704.724C186.456 706.352 188.527 709.771 187.268 712.265M211.863 734.209C209.479 736.421 204.816 735.394 201.652 731.9C198.381 728.413 197.769 723.755 200.189 721.508C202.648 719.3 207.169 720.331 210.447 723.821C213.718 727.347 214.353 731.978 211.859 734.213M228.737 762.287C225.67 764.416 220.659 762.42 217.565 757.973C214.502 753.53 214.502 748.197 217.632 746.06C220.737 743.923 225.67 745.844 228.808 750.256C231.866 754.777 231.866 760.11 228.733 762.291M257.269 794.807C254.528 797.827 248.693 797.019 244.419 792.894C240.05 788.862 238.831 783.141 241.58 780.118C244.352 777.09 250.223 777.941 254.528 782.031C258.869 786.055 260.195 791.819 257.273 794.807M294.146 805.787C292.943 809.701 287.319 811.481 281.657 809.818C276.002 808.105 272.3 803.517 273.441 799.56C274.618 795.619 280.265 793.764 285.97 795.544C291.617 797.25 295.327 801.803 294.15 805.787M336.121 810.442C336.263 814.567 331.459 817.987 325.514 818.061C319.534 818.191 314.699 814.854 314.636 810.799C314.636 806.634 319.33 803.246 325.306 803.148C331.251 803.03 336.121 806.344 336.121 810.442M377.351 808.862C378.065 812.885 373.932 817.018 368.03 818.116C362.226 819.175 356.854 816.693 356.113 812.705C355.391 808.579 359.603 804.45 365.395 803.379C371.308 802.352 376.598 804.772 377.351 808.862" fill="#161614"/>
</svg>
