<svg width="1000" height="1000" viewBox="0 0 1000 1000" fill="none" xmlns="http://www.w3.org/2000/svg">
<circle cx="500" cy="500" r="443" fill="white"/>
<path d="M499.999 0.00256348C223.855 0.00256348 5.34058e-05 223.858 5.34058e-05 500.002C5.34058e-05 776.145 223.855 1000 499.999 1000C776.143 1000 1000 776.145 1000 500.002C999.998 223.858 776.139 0.00256348 499.999 0.00256348ZM366.598 741.728H256.818V387.061H366.598V741.728ZM311.185 340.614C275.332 340.614 246.267 311.312 246.267 275.172C246.267 239.028 275.336 209.728 311.185 209.728C347.034 209.728 376.099 239.028 376.099 275.172C376.101 311.314 347.036 340.614 311.185 340.614ZM777.998 741.728H668.751V555.557C668.751 504.496 649.355 475.993 608.98 475.993C565.038 475.993 542.081 505.679 542.081 555.557V741.728H436.79V387.061H542.081V434.828C542.081 434.828 573.753 376.242 648.957 376.242C724.164 376.242 778 422.163 778 517.158L777.998 741.728Z" fill="url(#paint0_linear_21_19)"/>
<defs>
<linearGradient id="paint0_linear_21_19" x1="146.446" y1="146.449" x2="853.552" y2="853.554" gradientUnits="userSpaceOnUse">
<stop stop-color="#2489BE"/>
<stop offset="1" stop-color="#0575B3"/>
</linearGradient>
</defs>
</svg>
